#!OML:ASF I:\Actors\actors\Patient Classification 2\Patient 1\Session 1\actor1.ASF
:FULLY-SPECIFIED
:DEGREES
68
root -0.655235 18.6611 5.75091 -0.217676 -2.78821 -4.35823
lowerback 1.47651 0.887606 2.02441
upperback -1.44548 1.2544 0.895325
thorax -2.28703 0.600379 -0.258662
lowerneck -10.7304 -0.969924 -0.0561221
upperneck 23.7061 -2.04809 2.81157
head 9.24177 -0.663899 0.74655
rclavicle -1.0312e-015 9.54166e-015
rhumerus -48.1212 0.854086 -88.1556
rradius 40.6157
rwrist 17.2761
rhand -4.00421 -35.8222
rfingers 7.12502
rthumb 21.7499 -64.6203
lclavicle -1.0312e-015 9.54166e-015
lhumerus -44.5143 5.41789 87.2247
lradius 38.7522
lwrist -9.66036
lhand -10.6604 -25.6834
lfingers 7.12502
lthumb 15.3476 3.72707
rfemur 0 0 0
rtibia 0
rfoot 0 0
rtoes 0
lfemur -3.34823 -7.545 -10.65
ltibia 23.405
lfoot -25.0442 14.2105
ltoes -54.4648
69
root -0.654387 18.6607 5.75009 -0.232793 -2.7754 -4.37136
lowerback 1.4924 0.886696 2.07296
upperback -1.44476 1.25466 0.885559
thorax -2.29402 0.599552 -0.296106
lowerneck -10.7766 -0.982881 -0.00773034
upperneck 23.7322 -2.06077 2.74258
head 9.25861 -0.672212 0.713167
rclavicle -5.72748e-015 8.54774e-015
rhumerus -48.108 0.822986 -88.1605
rradius 40.5918
rwrist 17.329
rhand -4.01795 -35.7912
rfingers 7.12502
rthumb 21.7367 -64.5908
lclavicle -5.72748e-015 8.54774e-015
lhumerus -43.8574 6.1298 86.8823
lradius 36.8129
lwrist -10.3638
lhand -11.229 -26.7078
lfingers 7.12502
lthumb 14.7999 2.74368
rfemur 0 0 0
rtibia 0
rfoot 0 0
rtoes 0
lfemur -3.34194 -7.53749 -10.6371
ltibia 23.4193
lfoot -25.0706 14.1762
ltoes -54.4348
70
root -0.65376 18.661 5.7493 -0.244126 -2.7735 -4.37111
lowerback 1.51244 0.89356 2.09063
upperback -1.45466 1.26506 0.88537
thorax -2.31492 0.604199 -0.306979
lowerneck -10.831 -1.00558 0.00990886
upperneck 23.7659 -2.07884 2.66481
head 9.27983 -0.68656 0.68135
rclavicle 2.72583e-014 4.57205e-015
rhumerus -48.1003 0.783761 -88.1362
rradius 40.5493
rwrist 17.3626
rhand -3.99095 -35.8097
rfingers 7.12502
rthumb 21.7626 -64.6063
lclavicle 2.72583e-014 4.57205e-015
lhumerus -43.6331 6.37582 86.7754
lradius 36.1406
lwrist -10.6434
lhand -11.4508 -27.0821
lfingers 7.12502
lthumb 14.5862 2.38498
rfemur 0 0 0
rtibia 0
rfoot 0 0
rtoes 0
lfemur -3.33522 -7.50895 -10.6392
ltibia 23.429
lfoot -25.0521 14.1675
ltoes -54.4831
71
root -0.653279 18.6615 5.74809 -0.230525 -2.77505 -4.36736
lowerback 1.50743 0.907106 2.10135
upperback -1.47148 1.2835 0.88061
thorax -2.3287 0.612962 -0.318546
lowerneck -10.8477 -1.02802 -0.0364717
upperneck 23.7919 -2.12154 2.74539
head 9.29423 -0.701467 0.712159
rclavicle 6.23687e-015 -4.17448e-015
rhumerus -48.1122 0.724645 -88.1093
rradius 40.537
rwrist 17.3753
rhand -3.95475 -35.8353
rfingers 7.12502
rthumb 21.7974 -64.6278
lclavicle 6.23687e-015 -4.17448e-015
lhumerus -43.6301 6.35653 86.7769
lradius 36.1158
lwrist -10.6933
lhand -11.4165 -27.155
lfingers 7.12502
lthumb 14.6193 2.30968
rfemur 0 0 0
rtibia 0
rfoot 0 0
rtoes 0
lfemur -3.35906 -7.47391 -10.637
ltibia 23.4376
lfoot -25 14.1433
ltoes -54.5071
72
root -0.653173 18.6622 5.74665 -0.21029 -2.77083 -4.36448
lowerback 1.50259 0.91181 2.12462
upperback -1.48523 1.29026 0.869034
thorax -2.33922 0.615664 -0.343705
lowerneck -10.8851 -1.04184 -0.126894
upperneck 23.8407 -2.16072 2.89418
head 9.32184 -0.710831 0.7743
rclavicle -4.36084e-015 -6.16232e-015
rhumerus -48.1205 0.692825 -88.1097
rradius 40.5443
rwrist 17.3822
rhand -3.96043 -35.7964
rfingers 7.12502
rthumb 21.792 -64.5895
lclavicle -4.36084e-015 -6.16232e-015
lhumerus -43.8573 6.07998 86.8888
lradius 36.7723
lwrist -10.4748
lhand -11.1872 -26.7924
lfingers 7.12502
lthumb 14.8402 2.65621
rfemur 0 0 0
rtibia 0
rfoot 0 0
rtoes 0
lfemur -3.39982 -7.40749 -10.6265
ltibia 23.4435
lfoot -24.9289 14.1256
ltoes -54.5877
73
root -0.653023 18.6629 5.74537 -0.195889 -2.76987 -4.37027
lowerback 1.50781 0.913921 2.15732
upperback -1.50019 1.29448 0.873161
thorax -2.35689 0.616993 -0.358142
lowerneck -10.936 -1.05242 -0.236521
upperneck 23.8837 -2.17924 2.99475
head 9.34916 -0.717388 0.825412
rclavicle 1.31943e-014 -8.34896e-015
rhumerus -48.142 0.725942 -88.1177
rradius 40.5692
rwrist 17.34
rhand -3.9568 -35.7623
rfingers 7.12502
rthumb 21.7954 -64.555
lclavicle 1.31943e-014 -8.34896e-015
lhumerus -44.5274 5.28121 87.2726
lradius 38.7244
lwrist -9.68355
lhand -10.6463 -25.6817
lfingers 7.12502
lthumb 15.3612 3.72769
rfemur 0 0 0
rtibia 0
rfoot 0 0
rtoes 0
lfemur -3.42638 -7.38131 -10.6134
ltibia 23.4429
lfoot -24.9143 14.1101
ltoes -54.5923
74
root -0.653249 18.6633 5.74381 -0.186266 -2.7695 -4.37279
lowerback 1.53238 0.911794 2.16773
upperback -1.52784 1.29357 0.888373
thorax -2.39932 0.615933 -0.349046
lowerneck -10.9492 -1.05009 -0.308234
upperneck 23.9015 -2.17328 3.04225
head 9.35905 -0.715523 0.854653
rclavicle 5.59082e-016 -1.17283e-014
rhumerus -48.1879 0.785915 -88.1358
rradius 40.6021
rwrist 17.2803
rhand -3.93883 -35.8189
rfingers 7.12502
rthumb 21.8127 -64.6097
lclavicle 5.59082e-016 -1.17283e-014
lhumerus -44.5581 5.25659 87.3044
lradius 38.7335
lwrist -9.62769
lhand -10.6168 -25.7184
lfingers 7.12502
lthumb 15.3896 3.6888
rfemur 0 0 0
rtibia 0
rfoot 0 0
rtoes 0
lfemur -3.44201 -7.39496 -10.6068
ltibia 23.4389
lfoot -24.9427 14.0896
ltoes -54.5244
75
root -0.653448 18.6635 5.74246 -0.178913 -2.75843 -4.35804
lowerback 1.53536 0.894983 2.16203
upperback -1.54445 1.27146 0.889712
thorax -2.4187 0.604731 -0.343926
lowerneck -10.9301 -1.03633 -0.334698
upperneck 23.8911 -2.15646 3.07658
head 9.35209 -0.70668 0.872882
rclavicle 1.35422e-015 -6.16232e-015
rhumerus -48.2097 0.841635 -88.1758
rradius 40.6141
rwrist 17.2709
rhand -4.0067 -35.8244
rfingers 7.12502
rthumb 21.7475 -64.6227
lclavicle 1.35422e-015 -6.16232e-015
lhumerus -44.5673 5.26878 87.3021
lradius 38.7213
lwrist -9.59785
lhand -10.6196 -25.7439
lfingers 7.12502
lthumb 15.3869 3.66355
rfemur 0 0 0
rtibia 0
rfoot 0 0
rtoes 0
lfemur -3.46058 -7.36085 -10.6147
ltibia 23.436
lfoot -24.9331 14.0649
ltoes -54.5356
76
root -0.653247 18.6636 5.74186 -0.175325 -2.74982 -4.34156
lowerback 1.50476 0.88166 2.16193
upperback -1.53834 1.25245 0.882114
thorax -2.39542 0.595435 -0.350412
lowerneck -10.9238 -1.02822 -0.321207
upperneck 23.88 -2.14992 3.08594
head 9.34687 -0.701649 0.87451
rclavicle -6.33626e-016 1.05356e-014
rhumerus -48.2016 0.883928 -88.2097
rradius 40.6238
rwrist 17.2747
rhand -4.12252 -35.7947
rfingers 7.12502
rthumb 21.6363 -64.6059
lclavicle -6.33626e-016 1.05356e-014
lhumerus -43.8932 6.15289 86.8829
lradius 36.7549
lwrist -10.4235
lhand -11.095 -26.919
lfingers 7.12502
lthumb 14.929 2.52295
rfemur 0 0 0
rtibia 0
rfoot 0 0
rtoes 0
lfemur -3.46743 -7.33236 -10.6288
ltibia 23.4349
lfoot -24.9204 14.052
ltoes -54.5514
77
root -0.653221 18.6635 5.74104 -0.185243 -2.74747 -4.35412
lowerback 1.50394 0.878463 2.18196
upperback -1.53626 1.24877 0.88823
thorax -2.39265 0.593342 -0.355181
lowerneck -10.9395 -1.02377 -0.312439
upperneck 23.9166 -2.14976 3.09732
head 9.36277 -0.698969 0.877088
rclavicle -8.7341e-015 -6.36111e-015
rhumerus -48.2016 0.882267 -88.2146
rradius 40.6424
rwrist 17.2527
rhand -4.10973 -35.7721
rfingers 7.12502
rthumb 21.6486 -64.5819
lclavicle -8.7341e-015 -6.36111e-015
lhumerus -43.6644 6.44292 86.7532
lradius 36.1097
lwrist -10.7059
lhand -11.2064 -27.266
lfingers 7.12502
lthumb 14.8217 2.18389
rfemur 0 0 0
rtibia 0
rfoot 0 0
rtoes 0
lfemur -3.45398 -7.3347 -10.6125
ltibia 23.4352
lfoot -24.9151 14.0464
ltoes -54.57
78
root -0.653446 18.6633 5.74029 -0.200133 -2.74534 -4.36884
lowerback 1.51344 0.878202 2.20072
upperback -1.53827 1.24956 0.902424
thorax -2.4 0.593455 -0.351323
lowerneck -10.9144 -1.02376 -0.339955
upperneck 23.9042 -2.15011 3.12467
head 9.35426 -0.699014 0.891182
rclavicle 6.62201e-015 5.56597e-015
rhumerus -48.2098 0.869432 -88.203
rradius 40.6619
rwrist 17.1689
rhand -4.09722 -35.6952
rfingers 7.12502
rthumb 21.6606 -64.5036
lclavicle 6.62201e-015 5.56597e-015
lhumerus -43.687 6.42293 86.7898
lradius 36.1492
lwrist -10.701
lhand -11.2019 -27.1969
lfingers 7.12502
lthumb 14.8259 2.25274
rfemur 0 0 0
rtibia 0
rfoot 0 0
rtoes 0
lfemur -3.4409 -7.32198 -10.592
ltibia 23.4401
lfoot -24.9135 14.0234
ltoes -54.5709
79
root -0.653987 18.6629 5.74013 -0.203088 -2.75485 -4.35597
lowerback 1.50871 0.883417 2.19495
upperback -1.54333 1.25635 0.903544
thorax -2.40254 0.596902 -0.34715
lowerneck -10.8765 -1.02654 -0.319099
upperneck 23.8456 -2.14452 3.0779
head 9.32563 -0.700659 0.87201
rclavicle 1.0461e-014 -1.19271e-015
rhumerus -48.2013 0.8599 -88.2127
rradius 40.658
rwrist 17.0257
rhand -4.33081 -35.6876
rfingers 7.12502
rthumb 21.4363 -64.5216
lclavicle 1.0461e-014 -1.19271e-015
lhumerus -43.7209 6.41769 86.8109
lradius 36.21
lwrist -10.6782
lhand -11.243 -27.1462
lfingers 7.12502
lthumb 14.7864 2.30627
rfemur 0 0 0
rtibia 0
rfoot 0 0
rtoes 0
lfemur -3.44131 -7.33496 -10.6056
ltibia 23.4482
lfoot -24.9327 14.0222
ltoes -54.524
80
root -0.654536 18.6623 5.73984 -0.203799 -2.76281 -4.37258
lowerback 1.50027 0.888164 2.21701
upperback -1.5443 1.26312 0.908108
thorax -2.3983 0.599969 -0.354899
lowerneck -10.9112 -1.02435 -0.261576
upperneck 23.8611 -2.1351 3.00023
head 9.33595 -0.698968 0.836508
rclavicle 1.3828e-014 -5.56597e-015
rhumerus -48.1735 0.842148 -88.233
rradius 40.6435
rwrist 16.9301
rhand -4.6066 -35.7177
rfingers 7.12502
rthumb 21.1714 -64.5816
lclavicle 1.3828e-014 -5.56597e-015
lhumerus -43.7017 6.41922 86.8086
lradius 36.2075
lwrist -10.6468
lhand -11.239 -27.12
lfingers 7.12502
lthumb 14.7903 2.33228
rfemur 0 0 0
rtibia 0
rfoot 0 0
rtoes 0
lfemur -3.44138 -7.34132 -10.5842
ltibia 23.451
lfoot -24.9347 14.0213
ltoes -54.5225
81
root -0.655028 18.6621 5.73961 -0.210261 -2.75822 -4.40598
lowerback 1.48014 0.892026 2.25028
upperback -1.53416 1.26853 0.919504
thorax -2.376 0.602471 -0.361547
lowerneck -10.9753 -1.02015 -0.239317
upperneck 23.9105 -2.13033 2.97743
head 9.36487 -0.695968 0.825398
rclavicle -8.33653e-015 3.18055e-015
rhumerus -48.1685 0.837432 -88.2408
rradius 40.6738
rwrist 16.8804
rhand -4.82902 -35.6641
rfingers 7.12502
rthumb 20.9577 -64.5519
lclavicle -8.33653e-015 3.18055e-015
lhumerus -43.6505 6.39776 86.8172
lradius 36.1667
lwrist -10.6224
lhand -11.2268 -27.1168
lfingers 7.12502
lthumb 14.802 2.33453
rfemur 0 0 0
rtibia 0
rfoot 0 0
rtoes 0
lfemur -3.43646 -7.29677 -10.5405
ltibia 23.4446
lfoot -24.8958 14.0059
ltoes -54.5816
82
root -0.656192 18.6623 5.73925 -0.210593 -2.75309 -4.39738
lowerback 1.46632 0.904843 2.24145
upperback -1.53877 1.28496 0.914437
thorax -2.37267 0.610783 -0.362164
lowerneck -10.9839 -1.02578 -0.249792
upperneck 23.9175 -2.14409 3.00926
head 9.36975 -0.699646 0.836598
rclavicle -2.60905e-015 -1.47101e-014
rhumerus -48.2123 0.831629 -88.2585
rradius 40.7361
rwrist 16.7476
rhand -5.21695 -35.637
rfingers 7.12502
rthumb 20.585 -64.5655
lclavicle -2.60905e-015 -1.47101e-014
lhumerus -43.6448 6.31918 86.8445
lradius 36.1898
lwrist -10.5713
lhand -11.2079 -27.056
lfingers 7.12502
lthumb 14.8202 2.39407
rfemur 0 0 0
rtibia 0
rfoot 0 0
rtoes 0
lfemur -3.43926 -7.26367 -10.5414
ltibia 23.4359
lfoot -24.8824 13.9649
ltoes -54.5558
83
root -0.657455 18.6628 5.73887 -0.216631 -2.74913 -4.36152
lowerback 1.46898 0.91857 2.20386
upperback -1.54505 1.30236 0.906877
thorax -2.38085 0.61994 -0.349592
lowerneck -10.9784 -1.04597 -0.293574
upperneck 23.9058 -2.17623 3.06365
head 9.36631 -0.712814 0.859122
rclavicle 5.80203e-015 3.37934e-015
rhumerus -48.2833 0.903171 -88.3168
rradius 40.8577
rwrist 16.4612
rhand -5.64214 -35.6865
rfingers 7.12502
rthumb 20.1763 -64.6588
lclavicle 5.80203e-015 3.37934e-015
lhumerus -43.6375 6.292 86.8513
lradius 36.2069
lwrist -10.5618
lhand -11.1544 -27.0366
lfingers 7.12502
lthumb 14.8717 2.40967
rfemur 0 0 0
rtibia 0
rfoot 0 0
rtoes 0
lfemur -3.42693 -7.24741 -10.5735
ltibia 23.4256
lfoot -24.9087 13.895
ltoes -54.449
